<svg xmlns="http://www.w3.org/2000/svg" xmlns:xlink="http://www.w3.org/1999/xlink" width="880" zoomAndPan="magnify" viewBox="0 0 660 688.499979" height="918" preserveAspectRatio="xMidYMid meet" version="1.0"><defs><clipPath id="d4ca77c2c8"><path d="M 4 2 L 658 2 L 658 688 L 4 688 Z M 4 2 " clip-rule="nonzero"/></clipPath></defs><path fill="#000000" d="M 397.292969 527.089844 C 374.359375 527.089844 350.820312 522.050781 327.285156 512.105469 C 286.492188 494.867188 259.992188 469.007812 258.882812 467.917969 C 258.847656 467.882812 258.816406 467.847656 258.777344 467.8125 C 193.191406 400.898438 159.261719 337.773438 157.933594 280.195312 C 156.78125 230.164062 180.539062 194.941406 200.671875 174.203125 C 201.679688 173.167969 202.742188 172.191406 203.855469 171.273438 C 204.96875 170.351562 206.125 169.492188 207.332031 168.695312 C 208.535156 167.898438 209.777344 167.171875 211.0625 166.507812 C 212.34375 165.84375 213.660156 165.25 215.003906 164.726562 C 216.351562 164.203125 217.71875 163.753906 219.113281 163.378906 C 220.507812 163 221.917969 162.699219 223.34375 162.476562 C 224.769531 162.25 226.203125 162.101562 227.644531 162.027344 C 229.089844 161.957031 230.53125 161.960938 231.972656 162.042969 C 233.414062 162.125 234.847656 162.28125 236.269531 162.519531 C 237.695312 162.753906 239.101562 163.0625 240.496094 163.449219 C 241.886719 163.835938 243.253906 164.292969 244.59375 164.824219 C 245.9375 165.359375 247.25 165.960938 248.527344 166.632812 C 249.804688 167.304688 251.042969 168.042969 252.242188 168.847656 C 253.441406 169.652344 254.59375 170.515625 255.703125 171.445312 C 256.808594 172.371094 257.863281 173.355469 258.863281 174.398438 C 259.867188 175.4375 260.808594 176.527344 261.695312 177.671875 L 289.382812 213.292969 C 290.34375 214.519531 291.242188 215.792969 292.082031 217.105469 C 292.917969 218.421875 293.691406 219.773438 294.402344 221.164062 C 295.109375 222.554688 295.75 223.972656 296.320312 225.425781 C 296.890625 226.875 297.394531 228.351562 297.824219 229.851562 C 298.253906 231.351562 298.609375 232.867188 298.890625 234.402344 C 299.175781 235.933594 299.382812 237.480469 299.519531 239.03125 C 299.652344 240.585938 299.714844 242.144531 299.699219 243.703125 C 299.683594 245.261719 299.59375 246.820312 299.425781 248.371094 C 299.261719 249.921875 299.023438 251.460938 298.710938 252.988281 C 298.394531 254.515625 298.011719 256.027344 297.550781 257.515625 C 297.09375 259.007812 296.5625 260.472656 295.964844 261.914062 C 295.363281 263.351562 294.695312 264.761719 293.960938 266.136719 C 293.226562 267.511719 292.425781 268.847656 291.5625 270.144531 C 290.695312 271.445312 289.773438 272.699219 288.789062 273.90625 C 287.800781 275.117188 286.761719 276.273438 285.664062 277.382812 C 284.570312 278.492188 283.421875 279.546875 282.222656 280.542969 C 281.351562 281.277344 280.507812 282.046875 279.699219 282.847656 C 278.886719 283.648438 278.113281 284.484375 277.371094 285.351562 C 276.628906 286.214844 275.921875 287.109375 275.25 288.035156 C 274.582031 288.957031 273.953125 289.90625 273.359375 290.882812 C 272.765625 291.855469 272.214844 292.851562 271.703125 293.871094 C 271.191406 294.894531 270.722656 295.929688 270.296875 296.988281 C 269.871094 298.046875 269.488281 299.121094 269.148438 300.210938 C 268.8125 301.300781 268.515625 302.402344 268.269531 303.515625 C 268.019531 304.628906 267.816406 305.75 267.65625 306.878906 C 267.5 308.007812 267.386719 309.140625 267.320312 310.28125 C 267.257812 311.421875 267.238281 312.558594 267.265625 313.699219 C 267.292969 314.839844 267.363281 315.976562 267.484375 317.113281 C 267.605469 318.246094 267.769531 319.375 267.980469 320.496094 C 268.195312 321.617188 268.449219 322.726562 268.753906 323.828125 C 269.054688 324.925781 269.402344 326.011719 269.792969 327.085938 C 270.183594 328.15625 270.617188 329.210938 271.09375 330.246094 C 288.640625 368.257812 320.109375 392.144531 343.417969 405.488281 C 345.046875 406.421875 346.738281 407.222656 348.492188 407.890625 C 350.246094 408.554688 352.039062 409.082031 353.875 409.464844 C 355.714844 409.851562 357.570312 410.089844 359.441406 410.179688 C 361.316406 410.273438 363.1875 410.21875 365.050781 410.019531 C 366.917969 409.816406 368.753906 409.472656 370.566406 408.980469 C 372.378906 408.492188 374.140625 407.863281 375.851562 407.097656 C 377.566406 406.328125 379.207031 405.433594 380.78125 404.410156 C 382.351562 403.382812 383.832031 402.242188 385.226562 400.984375 L 391.164062 395.648438 C 392.199219 394.722656 393.273438 393.84375 394.386719 393.015625 C 395.5 392.1875 396.648438 391.410156 397.832031 390.683594 C 399.015625 389.957031 400.226562 389.285156 401.472656 388.667969 C 402.714844 388.050781 403.984375 387.492188 405.277344 386.988281 C 406.570312 386.484375 407.882812 386.039062 409.21875 385.652344 C 410.550781 385.265625 411.898438 384.941406 413.261719 384.675781 C 414.621094 384.410156 415.996094 384.203125 417.375 384.0625 C 418.757812 383.917969 420.140625 383.839844 421.527344 383.820312 C 422.914062 383.800781 424.300781 383.84375 425.6875 383.949219 C 427.070312 384.054688 428.445312 384.222656 429.816406 384.449219 C 431.183594 384.675781 432.539062 384.964844 433.882812 385.316406 C 435.226562 385.667969 436.550781 386.074219 437.859375 386.542969 C 439.164062 387.011719 440.449219 387.539062 441.707031 388.121094 C 442.96875 388.703125 444.199219 389.34375 445.402344 390.035156 C 446.605469 390.730469 447.773438 391.476562 448.910156 392.273438 C 450.046875 393.070312 451.144531 393.917969 452.203125 394.816406 L 488.832031 425.972656 C 489.523438 426.5625 490.199219 427.171875 490.855469 427.800781 C 491.515625 428.429688 492.152344 429.078125 492.773438 429.746094 C 493.390625 430.414062 493.992188 431.097656 494.570312 431.800781 C 495.152344 432.503906 495.710938 433.222656 496.25 433.957031 C 496.785156 434.691406 497.300781 435.441406 497.796875 436.207031 C 498.289062 436.972656 498.761719 437.75 499.210938 438.542969 C 499.65625 439.335938 500.082031 440.140625 500.484375 440.957031 C 500.886719 441.773438 501.261719 442.601562 501.617188 443.441406 C 501.96875 444.28125 502.296875 445.128906 502.601562 445.988281 C 502.90625 446.847656 503.183594 447.714844 503.4375 448.589844 C 503.6875 449.464844 503.914062 450.347656 504.117188 451.234375 C 504.320312 452.121094 504.492188 453.015625 504.644531 453.914062 C 504.792969 454.8125 504.914062 455.714844 505.011719 456.621094 C 505.109375 457.527344 505.179688 458.433594 505.222656 459.34375 C 505.265625 460.253906 505.28125 461.164062 505.273438 462.074219 C 505.261719 462.984375 505.226562 463.894531 505.164062 464.804688 C 505.101562 465.710938 505.011719 466.617188 504.898438 467.523438 C 504.78125 468.425781 504.640625 469.324219 504.472656 470.21875 C 504.300781 471.113281 504.109375 472.003906 503.886719 472.886719 C 503.667969 473.773438 503.421875 474.648438 503.152344 475.519531 C 502.878906 476.386719 502.582031 477.25 502.261719 478.101562 C 501.941406 478.953125 501.59375 479.792969 501.222656 480.625 C 500.851562 481.457031 500.457031 482.277344 500.039062 483.085938 C 499.621094 483.894531 499.179688 484.691406 498.714844 485.472656 C 498.25 486.257812 497.761719 487.027344 497.25 487.78125 C 496.742188 488.535156 496.210938 489.273438 495.65625 489.996094 C 495.101562 490.71875 494.527344 491.425781 493.933594 492.117188 C 493.339844 492.804688 492.726562 493.476562 492.09375 494.132812 C 491.460938 494.785156 490.808594 495.421875 490.136719 496.035156 C 489.464844 496.652344 488.777344 497.246094 488.070312 497.824219 C 487.367188 498.398438 486.644531 498.953125 485.90625 499.484375 C 485.167969 500.019531 484.414062 500.53125 483.648438 501.019531 C 457.132812 517.957031 428.707031 526.726562 399.164062 527.078125 C 398.542969 527.085938 397.917969 527.089844 397.292969 527.089844 Z M 271.078125 455.605469 C 272.203125 456.695312 297.324219 480.746094 334.523438 496.347656 C 384.289062 517.21875 431.328125 513.875 474.324219 486.40625 C 474.808594 486.101562 475.28125 485.777344 475.746094 485.441406 C 476.210938 485.109375 476.667969 484.757812 477.109375 484.398438 C 477.554688 484.035156 477.988281 483.660156 478.410156 483.273438 C 478.832031 482.886719 479.242188 482.488281 479.644531 482.074219 C 480.042969 481.664062 480.429688 481.242188 480.804688 480.808594 C 481.175781 480.375 481.539062 479.929688 481.886719 479.472656 C 482.234375 479.019531 482.570312 478.554688 482.890625 478.078125 C 483.214844 477.605469 483.519531 477.121094 483.8125 476.628906 C 484.105469 476.136719 484.382812 475.636719 484.648438 475.128906 C 484.910156 474.617188 485.160156 474.101562 485.394531 473.578125 C 485.628906 473.054688 485.847656 472.523438 486.046875 471.988281 C 486.25 471.453125 486.4375 470.910156 486.609375 470.363281 C 486.78125 469.816406 486.933594 469.265625 487.074219 468.710938 C 487.210938 468.152344 487.335938 467.59375 487.441406 467.03125 C 487.546875 466.46875 487.636719 465.902344 487.710938 465.332031 C 487.78125 464.765625 487.839844 464.195312 487.878906 463.621094 C 487.917969 463.050781 487.941406 462.476562 487.949219 461.902344 C 487.953125 461.332031 487.945312 460.757812 487.917969 460.183594 C 487.890625 459.613281 487.847656 459.042969 487.785156 458.472656 C 487.726562 457.902344 487.648438 457.332031 487.554688 456.769531 C 487.460938 456.203125 487.351562 455.640625 487.222656 455.082031 C 487.097656 454.523438 486.953125 453.96875 486.796875 453.417969 C 486.636719 452.867188 486.460938 452.320312 486.269531 451.78125 C 486.078125 451.238281 485.875 450.703125 485.652344 450.175781 C 485.429688 449.648438 485.191406 449.125 484.941406 448.613281 C 484.6875 448.097656 484.417969 447.589844 484.136719 447.089844 C 483.855469 446.59375 483.558594 446.101562 483.25 445.621094 C 482.9375 445.140625 482.613281 444.667969 482.273438 444.203125 C 481.9375 443.742188 481.585938 443.289062 481.21875 442.847656 C 480.855469 442.40625 480.476562 441.972656 480.089844 441.554688 C 479.699219 441.132812 479.296875 440.726562 478.882812 440.328125 C 478.46875 439.933594 478.042969 439.550781 477.609375 439.179688 L 440.984375 408.023438 C 440.320312 407.460938 439.632812 406.929688 438.917969 406.429688 C 438.207031 405.929688 437.476562 405.460938 436.722656 405.027344 C 435.96875 404.59375 435.195312 404.191406 434.40625 403.828125 C 433.617188 403.460938 432.8125 403.132812 431.996094 402.839844 C 431.175781 402.546875 430.347656 402.289062 429.503906 402.070312 C 428.664062 401.851562 427.8125 401.671875 426.957031 401.527344 C 426.097656 401.382812 425.234375 401.28125 424.367188 401.214844 C 423.5 401.148438 422.632812 401.121094 421.761719 401.132812 C 420.894531 401.144531 420.027344 401.195312 419.160156 401.285156 C 418.296875 401.375 417.4375 401.503906 416.582031 401.667969 C 415.730469 401.835938 414.882812 402.039062 414.050781 402.28125 C 413.214844 402.523438 412.390625 402.804688 411.582031 403.117188 C 410.769531 403.433594 409.976562 403.785156 409.195312 404.171875 C 408.417969 404.558594 407.65625 404.980469 406.914062 405.433594 C 406.175781 405.890625 405.453125 406.375 404.757812 406.894531 C 404.058594 407.414062 403.386719 407.964844 402.738281 408.542969 L 396.800781 413.882812 C 395.769531 414.8125 394.703125 415.703125 393.601562 416.550781 C 392.503906 417.398438 391.371094 418.199219 390.207031 418.957031 C 389.042969 419.71875 387.851562 420.429688 386.632812 421.09375 C 385.410156 421.757812 384.167969 422.375 382.898438 422.941406 C 381.632812 423.507812 380.34375 424.023438 379.035156 424.492188 C 377.726562 424.957031 376.402344 425.371094 375.0625 425.734375 C 373.722656 426.097656 372.367188 426.40625 371.003906 426.660156 C 369.636719 426.917969 368.265625 427.117188 366.882812 427.265625 C 365.503906 427.414062 364.121094 427.507812 362.730469 427.550781 C 361.34375 427.589844 359.957031 427.574219 358.566406 427.503906 C 357.179688 427.433594 355.800781 427.3125 354.421875 427.132812 C 353.042969 426.957031 351.675781 426.726562 350.316406 426.441406 C 348.957031 426.15625 347.613281 425.816406 346.277344 425.425781 C 344.945312 425.035156 343.628906 424.59375 342.332031 424.097656 C 341.035156 423.605469 339.757812 423.0625 338.503906 422.46875 C 337.246094 421.875 336.015625 421.230469 334.8125 420.539062 C 309.3125 405.941406 274.832031 379.6875 255.363281 337.523438 C 254.691406 336.058594 254.078125 334.566406 253.527344 333.050781 C 252.972656 331.539062 252.484375 330.003906 252.058594 328.449219 C 251.628906 326.894531 251.265625 325.324219 250.96875 323.738281 C 250.667969 322.152344 250.433594 320.558594 250.265625 318.957031 C 250.09375 317.351562 249.988281 315.746094 249.953125 314.132812 C 249.914062 312.519531 249.941406 310.910156 250.03125 309.300781 C 250.125 307.691406 250.28125 306.085938 250.507812 304.488281 C 250.730469 302.890625 251.015625 301.308594 251.371094 299.734375 C 251.722656 298.160156 252.136719 296.605469 252.617188 295.0625 C 253.09375 293.523438 253.636719 292.007812 254.238281 290.511719 C 254.839844 289.015625 255.503906 287.546875 256.226562 286.105469 C 256.949219 284.664062 257.726562 283.253906 258.566406 281.875 C 259.402344 280.5 260.292969 279.15625 261.238281 277.851562 C 262.1875 276.546875 263.183594 275.28125 264.234375 274.058594 C 265.28125 272.835938 266.378906 271.65625 267.527344 270.519531 C 268.671875 269.386719 269.859375 268.300781 271.09375 267.261719 C 271.867188 266.621094 272.605469 265.941406 273.3125 265.226562 C 274.019531 264.511719 274.6875 263.765625 275.324219 262.988281 C 275.957031 262.207031 276.554688 261.402344 277.109375 260.566406 C 277.667969 259.730469 278.183594 258.867188 278.65625 257.980469 C 279.128906 257.09375 279.558594 256.1875 279.945312 255.261719 C 280.332031 254.332031 280.671875 253.390625 280.96875 252.429688 C 281.265625 251.46875 281.511719 250.496094 281.714844 249.511719 C 281.917969 248.527344 282.070312 247.535156 282.175781 246.535156 C 282.285156 245.539062 282.34375 244.535156 282.351562 243.53125 C 282.363281 242.527344 282.324219 241.523438 282.238281 240.523438 C 282.148438 239.519531 282.015625 238.527344 281.832031 237.539062 C 281.648438 236.550781 281.421875 235.574219 281.144531 234.605469 C 280.867188 233.640625 280.542969 232.691406 280.175781 231.753906 C 279.808594 230.820312 279.394531 229.90625 278.9375 229.011719 C 278.484375 228.117188 277.984375 227.246094 277.445312 226.398438 C 276.902344 225.550781 276.324219 224.730469 275.703125 223.941406 L 248.019531 188.308594 C 246.996094 186.992188 245.84375 185.800781 244.566406 184.730469 C 243.285156 183.664062 241.910156 182.742188 240.433594 181.96875 C 238.957031 181.195312 237.414062 180.585938 235.808594 180.144531 C 234.203125 179.703125 232.566406 179.433594 230.902344 179.34375 C 229.257812 179.25 227.621094 179.332031 225.992188 179.589844 C 224.363281 179.851562 222.78125 180.277344 221.246094 180.878906 C 219.707031 181.476562 218.253906 182.230469 216.878906 183.140625 C 215.503906 184.054688 214.242188 185.101562 213.09375 186.285156 C 174.820312 225.707031 131.472656 313.121094 271.078125 455.605469 Z M 271.078125 455.605469 " fill-opacity="1" fill-rule="nonzero"/><g clip-path="url(#d4ca77c2c8)"><path fill="#000000" d="M 13.132812 688.101562 C 12.789062 688.101562 12.449219 688.082031 12.109375 688.039062 C 11.769531 688 11.433594 687.9375 11.101562 687.859375 C 10.769531 687.777344 10.441406 687.679688 10.121094 687.558594 C 9.800781 687.441406 9.488281 687.304688 9.183594 687.148438 C 8.878906 686.992188 8.585938 686.816406 8.300781 686.628906 C 8.015625 686.4375 7.746094 686.230469 7.484375 686.007812 C 7.226562 685.78125 6.980469 685.546875 6.75 685.292969 C 6.519531 685.039062 6.304688 684.777344 6.101562 684.496094 C 5.902344 684.21875 5.71875 683.929688 5.554688 683.632812 C 5.390625 683.332031 5.242188 683.023438 5.113281 682.707031 C 4.984375 682.390625 4.871094 682.066406 4.78125 681.734375 C 4.691406 681.40625 4.621094 681.070312 4.570312 680.734375 C 4.515625 680.394531 4.484375 680.054688 4.476562 679.710938 C 4.464844 679.371094 4.472656 679.027344 4.503906 678.6875 C 4.53125 678.347656 4.582031 678.007812 4.652344 677.671875 C 4.71875 677.335938 4.808594 677.007812 4.917969 676.683594 L 60.242188 511.171875 C 56.703125 505.90625 53.324219 500.542969 50.101562 495.082031 C 46.878906 489.617188 43.816406 484.066406 40.914062 478.425781 C 38.011719 472.785156 35.277344 467.066406 32.710938 461.265625 C 30.144531 455.464844 27.746094 449.59375 25.519531 443.65625 C 23.296875 437.714844 21.242188 431.714844 19.367188 425.65625 C 17.492188 419.597656 15.792969 413.488281 14.269531 407.332031 C 12.75 401.171875 11.410156 394.972656 10.25 388.738281 C 9.089844 382.5 8.109375 376.234375 7.316406 369.941406 C 6.519531 363.648438 5.90625 357.335938 5.480469 351.007812 C 5.050781 344.679688 4.808594 338.34375 4.746094 332 C 4.6875 325.65625 4.8125 319.316406 5.125 312.980469 C 5.433594 306.644531 5.925781 300.324219 6.605469 294.015625 C 7.28125 287.707031 8.144531 281.425781 9.1875 275.167969 C 10.230469 268.910156 11.453125 262.691406 12.859375 256.503906 C 14.265625 250.320312 15.851562 244.179688 17.613281 238.085938 C 19.378906 231.992188 21.316406 225.957031 23.429688 219.976562 C 25.546875 213.996094 27.832031 208.082031 30.289062 202.234375 C 32.75 196.386719 35.375 190.617188 38.171875 184.921875 C 40.964844 179.226562 43.921875 173.621094 47.042969 168.097656 C 50.167969 162.578125 53.445312 157.152344 56.882812 151.820312 C 60.320312 146.492188 63.910156 141.265625 67.648438 136.144531 C 71.390625 131.023438 75.277344 126.015625 79.3125 121.121094 C 83.34375 116.226562 87.515625 111.453125 91.828125 106.800781 C 96.136719 102.148438 100.578125 97.628906 105.152344 93.234375 C 109.726562 88.84375 114.425781 84.585938 119.246094 80.46875 C 124.070312 76.351562 129.003906 72.375 134.058594 68.542969 C 139.113281 64.714844 144.273438 61.035156 149.539062 57.503906 C 154.808594 53.972656 160.171875 50.601562 165.636719 47.382812 C 171.097656 44.164062 176.652344 41.109375 182.292969 38.214844 C 187.933594 35.324219 193.65625 32.597656 199.457031 30.035156 C 205.257812 27.476562 211.125 25.085938 217.066406 22.871094 C 223.003906 20.652344 229.003906 18.609375 235.0625 16.742188 C 241.121094 14.871094 247.226562 13.183594 253.386719 11.667969 C 259.542969 10.15625 265.738281 8.824219 271.972656 7.675781 C 278.207031 6.523438 284.46875 5.554688 290.757812 4.769531 C 297.050781 3.984375 303.359375 3.382812 309.683594 2.964844 C 316.007812 2.546875 322.339844 2.3125 328.679688 2.261719 C 335.019531 2.214844 341.355469 2.347656 347.6875 2.667969 C 354.019531 2.988281 360.335938 3.492188 366.636719 4.183594 C 372.9375 4.871094 379.214844 5.742188 385.464844 6.796875 C 391.71875 7.851562 397.933594 9.085938 404.113281 10.503906 C 410.292969 11.917969 416.425781 13.515625 422.511719 15.289062 C 428.597656 17.0625 434.628906 19.011719 440.601562 21.136719 C 446.574219 23.261719 452.480469 25.5625 458.320312 28.03125 C 464.15625 30.5 469.921875 33.140625 475.605469 35.945312 C 481.292969 38.75 486.890625 41.71875 492.402344 44.851562 C 497.917969 47.984375 503.332031 51.273438 508.65625 54.722656 C 513.976562 58.167969 519.191406 61.769531 524.304688 65.523438 C 529.417969 69.273438 534.414062 73.171875 539.300781 77.214844 C 544.183594 81.257812 548.949219 85.441406 553.589844 89.761719 C 558.230469 94.082031 562.742188 98.535156 567.125 103.121094 C 571.507812 107.703125 575.75 112.410156 579.859375 117.242188 C 583.96875 122.074219 587.929688 127.019531 591.75 132.082031 C 595.570312 137.144531 599.242188 142.316406 602.761719 147.59375 C 606.28125 152.867188 609.640625 158.242188 612.847656 163.714844 C 616.054688 169.1875 619.097656 174.75 621.980469 180.398438 C 624.863281 186.050781 627.578125 191.777344 630.128906 197.585938 C 632.675781 203.394531 635.054688 209.273438 637.261719 215.21875 C 639.46875 221.167969 641.5 227.171875 643.359375 233.238281 C 645.214844 239.304688 646.894531 245.417969 648.394531 251.582031 C 649.898438 257.746094 651.21875 263.945312 652.359375 270.1875 C 653.5 276.425781 654.457031 282.695312 655.230469 288.992188 C 656.007812 295.289062 656.597656 301.601562 657.007812 307.929688 C 657.414062 314.261719 657.636719 320.597656 657.675781 326.941406 C 657.714844 333.285156 657.570312 339.625 657.238281 345.960938 C 656.910156 352.296875 656.394531 358.617188 655.695312 364.921875 C 655 371.226562 654.117188 377.503906 653.054688 383.757812 C 651.988281 390.011719 650.746094 396.230469 649.320312 402.410156 C 647.894531 408.59375 646.289062 414.726562 644.507812 420.8125 C 642.722656 426.902344 640.765625 432.933594 638.632812 438.90625 C 636.5 444.878906 634.191406 450.785156 631.714844 456.625 C 629.238281 462.464844 626.59375 468.226562 623.777344 473.910156 C 620.964844 479.597656 617.988281 485.195312 614.851562 490.707031 C 611.710938 496.21875 608.414062 501.632812 604.960938 506.953125 C 601.507812 512.269531 597.902344 517.484375 594.144531 522.59375 C 590.386719 527.703125 586.480469 532.699219 582.433594 537.582031 C 578.386719 542.460938 574.199219 547.222656 569.871094 551.859375 C 565.546875 556.496094 561.089844 561.003906 556.5 565.382812 C 551.914062 569.757812 547.203125 574 542.367188 578.101562 C 537.53125 582.207031 532.582031 586.164062 527.515625 589.980469 C 522.453125 593.792969 517.28125 597.457031 512 600.96875 C 506.722656 604.484375 501.347656 607.839844 495.871094 611.039062 C 490.398438 614.238281 484.835938 617.277344 479.183594 620.152344 C 473.535156 623.027344 467.804688 625.734375 461.996094 628.277344 C 456.1875 630.816406 450.308594 633.1875 444.363281 635.386719 C 438.417969 637.585938 432.410156 639.609375 426.347656 641.457031 C 420.28125 643.304688 414.167969 644.976562 408.007812 646.46875 C 401.847656 647.960938 395.648438 649.273438 389.410156 650.402344 C 383.171875 651.535156 376.90625 652.480469 370.613281 653.25 C 364.320312 654.015625 358.007812 654.59375 351.683594 654.992188 C 345.355469 655.390625 339.023438 655.605469 332.683594 655.632812 C 326.34375 655.660156 320.007812 655.503906 313.679688 655.164062 C 307.347656 654.824219 301.03125 654.300781 294.734375 653.589844 C 288.433594 652.882812 282.160156 651.992188 275.910156 650.917969 C 269.664062 649.84375 263.453125 648.585938 257.277344 647.148438 C 251.101562 645.714844 244.976562 644.097656 238.894531 642.304688 L 130.496094 664.371094 L 14.859375 687.925781 C 14.289062 688.042969 13.714844 688.101562 13.132812 688.101562 Z M 331.585938 18.296875 C 160.765625 18.296875 21.792969 157.363281 21.792969 328.300781 C 21.777344 336.136719 22.0625 343.957031 22.640625 351.769531 C 23.222656 359.582031 24.097656 367.359375 25.269531 375.101562 C 26.441406 382.847656 27.910156 390.535156 29.667969 398.167969 C 31.425781 405.800781 33.472656 413.355469 35.808594 420.832031 C 38.144531 428.308594 40.757812 435.6875 43.65625 442.960938 C 46.550781 450.238281 49.722656 457.394531 53.164062 464.429688 C 56.605469 471.464844 60.3125 478.359375 64.277344 485.113281 C 68.246094 491.863281 72.464844 498.457031 76.933594 504.886719 C 77.714844 506.007812 78.199219 507.25 78.394531 508.601562 C 78.585938 509.957031 78.46875 511.28125 78.035156 512.578125 L 26.105469 667.945312 L 127.042969 647.382812 L 237.5625 624.882812 C 238.992188 624.59375 240.402344 624.65625 241.796875 625.078125 C 256.355469 629.472656 271.160156 632.78125 286.207031 634.996094 C 301.25 637.210938 316.378906 638.3125 331.585938 638.300781 C 502.40625 638.300781 641.375 499.234375 641.375 328.300781 C 641.375 157.367188 502.40625 18.296875 331.585938 18.296875 Z M 331.585938 18.296875 " fill-opacity="1" fill-rule="nonzero"/></g></svg>